<svg height="100%" viewBox="0 0 204 43" fill="none" xmlns="http://www.w3.org/2000/svg"><path fill-rule="evenodd" clip-rule="evenodd" d="M183.861 0.990234H91.2764V42.9323H183.861L204 21.8921L183.861 0.990234Z" fill="#FFE136"></path><path d="M19.1994 24.8939C17.9911 27.8216 15.6415 29.6967 12.2849 29.6967C8.02214 29.6967 4.86699 26.2755 4.86699 22.032C4.86699 17.8871 8.02214 14.466 12.2849 14.466C15.3394 14.466 17.4205 15.9792 18.8638 18.6108L23.2944 16.6042C21.4147 12.5909 17.4205 10.0908 12.2849 10.0908C5.16907 10.0908 0 15.4857 0 22.032C0 28.6111 5.20264 34.006 12.2849 34.006C17.6554 34.006 21.784 30.8809 23.5629 26.5387L19.1994 24.8939Z" fill="#111317"></path><path d="M36.6917 10.4856H30.9856L22.3593 33.6113H27.092L28.9717 28.3479H38.4707L40.3504 33.6113H45.3852L36.6917 10.4856ZM30.3143 24.4663L33.738 14.6962L37.0945 24.4663H30.3143Z" fill="#111317"></path><path d="M54.0978 13.9396C56.6823 13.9396 58.3941 14.9594 58.864 17.5581L63.6303 16.8344C62.8919 12.229 59.1997 10.0908 54.232 10.0908C49.365 10.0908 45.3036 12.7554 45.3036 17.1305C45.3036 21.1109 48.4923 23.0517 51.9831 23.5452L55.7089 24.0715C57.8571 24.3676 59.1997 25.2558 59.1997 26.9992C59.1997 29.1374 57.4207 30.1243 54.7355 30.1243C51.681 30.1243 49.7007 28.8414 49.1301 25.19L44.3638 25.9137C44.968 31.6704 49.1301 34.006 54.7691 34.006C59.9381 34.006 64.0667 31.2757 64.0667 26.5387C64.0667 22.328 61.0458 20.5188 56.9844 19.9595L53.2922 19.4661C51.1776 19.17 50.0699 18.3476 50.0699 16.7029C50.0699 14.9265 51.8824 13.9396 54.0978 13.9396Z" fill="#111317"></path><path d="M77.5865 10.4856H71.8804L63.254 33.6113H67.9868L69.8664 28.3479H79.3654L81.2451 33.6113H86.2799L77.5865 10.4856ZM71.209 24.4663L74.6327 14.6962L77.9893 24.4663H71.209Z" fill="#111317"></path><path d="M104.543 33.6113H109.242V25.0584L117.533 10.4856H112.531L106.892 20.7819L101.354 10.4856H96.1514L104.543 25.3544V33.6113Z" fill="#111317"></path><path d="M118.913 33.6113H136.032V29.5322H123.646V23.8741H135.058V19.9595H123.646V14.5646H135.864V10.4856H118.913V33.6113Z" fill="#111317"></path><path d="M146.829 13.9396C149.413 13.9396 151.125 14.9594 151.595 17.5581L156.361 16.8344C155.623 12.229 151.931 10.0908 146.963 10.0908C142.096 10.0908 138.034 12.7554 138.034 17.1305C138.034 21.1109 141.223 23.0517 144.714 23.5452L148.44 24.0715C150.588 24.3676 151.931 25.2558 151.931 26.9992C151.931 29.1374 150.152 30.1243 147.466 30.1243C144.412 30.1243 142.432 28.8414 141.861 25.19L137.095 25.9137C137.699 31.6704 141.861 34.006 147.5 34.006C152.669 34.006 156.798 31.2757 156.798 26.5387C156.798 22.328 153.777 20.5188 149.715 19.9595L146.023 19.4661C143.908 19.17 142.801 18.3476 142.801 16.7029C142.801 14.9265 144.613 13.9396 146.829 13.9396Z" fill="#111317"></path></svg>